<?xml version="1.0" encoding="UTF-8"?>
<svg id="Layer_2" data-name="Layer 2" xmlns="http://www.w3.org/2000/svg" viewBox="0 0 57.55 56.14">
  <defs>
    <style>
      .cls-1 {
        fill: #d1019b;
      }
    </style>
  </defs>
  <g id="Layer_1-2" data-name="Layer 1">
    <path class="cls-1" d="m54.15,33.87c-.72,1.18-1.57,2.32-2.54,3.41-.56.63-1.15,1.23-1.77,1.81-1.72,1.61-3.67,3-5.86,4.16-1.97,1.04-2.91,2.53-2.91,4.52v4.79c-1.77,1.18-3.74,2.09-5.86,2.71-1.95.56-4.02.87-6.16.87s-4.39-.34-6.42-.96c-2.22-.67-4.28-1.68-6.11-2.97,0-1.45,0-2.9.01-4.35,0-2-.91-3.5-2.9-4.58-1.96-1.07-3.74-2.3-5.29-3.67-1.94-1.69-3.56-3.59-4.84-5.63-4.53-7.2-4.81-16.11.03-23.86C6.18,5.86,10.02,2.6,14.89.23c1.01-.49,1.67-.15,1.67.86,0,6.44,0,12.87-.02,19.31,0,1.01-.01,2.03-.01,3.04-.01,1.2.57,1.95,1.84,2.41,7.03,2.5,14.04,2.49,21.04-.08,1.14-.41,1.65-1.12,1.65-2.18v-3.53c-.01-6.26-.01-12.52-.01-18.77v-.27c.02-.92.7-1.27,1.63-.82,2.38,1.15,4.54,2.56,6.09,3.9,9.45,8.21,11.32,20.21,5.38,29.77Z"/>
  </g>
</svg>