<?xml version="1.0" encoding="UTF-8"?>
<svg id="Layer_2" data-name="Layer 2" xmlns="http://www.w3.org/2000/svg" viewBox="0 0 473.87 83.68">
  <defs>
    <style>
      .cls-1 {
        fill: #f4f3fb;
      }

      .cls-2 {
        fill: #d1019b;
      }
    </style>
  </defs>
  <g id="Layer_1-2" data-name="Layer 1">
    <g>
      <path class="cls-2" d="m0,6.16c0-.87.15-1.68.46-2.42s.73-1.4,1.25-1.96c.53-.56,1.15-1,1.88-1.31.73-.31,1.51-.46,2.34-.46s1.66.16,2.37.46c.71.31,1.33.75,1.85,1.31.53.56.93,1.22,1.23,1.96.29.75.44,1.55.44,2.42v17.01c2.07-1.34,4.3-2.39,6.68-3.13,2.38-.74,4.88-1.12,7.5-1.12,3.6,0,6.97.68,10.11,2.04,3.14,1.36,5.89,3.22,8.23,5.56s4.2,5.1,5.56,8.26c1.36,3.16,2.04,6.54,2.04,10.14s-.68,6.92-2.04,10.08c-1.36,3.16-3.22,5.92-5.56,8.29s-5.09,4.22-8.23,5.59c-3.14,1.36-6.51,2.04-10.11,2.04s-6.92-.68-10.08-2.04c-3.16-1.36-5.92-3.22-8.29-5.59-2.36-2.36-4.22-5.12-5.59-8.29s-2.04-6.52-2.04-10.08V6.16Zm11.83,38.75c0,1.93.37,3.75,1.12,5.48.74,1.73,1.76,3.23,3.05,4.52,1.29,1.29,2.79,2.31,4.5,3.05,1.71.75,3.54,1.12,5.5,1.12s3.8-.37,5.5-1.12c1.71-.74,3.21-1.76,4.5-3.05,1.29-1.29,2.3-2.8,3.03-4.52.73-1.73,1.09-3.55,1.09-5.48s-.36-3.81-1.09-5.53c-.73-1.73-1.74-3.22-3.03-4.5-1.29-1.27-2.79-2.28-4.5-3.02-1.71-.74-3.54-1.12-5.5-1.12s-3.8.37-5.5,1.12c-1.71.75-3.21,1.75-4.5,3.02-1.29,1.27-2.31,2.77-3.05,4.5-.75,1.73-1.12,3.57-1.12,5.53Z"/>
      <path class="cls-2" d="m118.77,7.52c0-.91.17-1.76.52-2.56.35-.8.81-1.49,1.39-2.07s1.27-1.04,2.07-1.39c.8-.34,1.63-.52,2.51-.52s1.71.17,2.51.52c.8.35,1.5.81,2.1,1.39.6.58,1.07,1.27,1.42,2.07.34.8.52,1.65.52,2.56s-.17,1.7-.52,2.48c-.35.78-.82,1.46-1.42,2.04-.6.58-1.3,1.04-2.1,1.39-.8.35-1.63.52-2.51.52s-1.71-.17-2.51-.52-1.49-.81-2.07-1.39c-.58-.58-1.04-1.26-1.39-2.04-.35-.78-.52-1.61-.52-2.48Zm12.43,56.85c0,.8-.16,1.56-.46,2.29-.31.73-.73,1.35-1.25,1.88-.53.53-1.15.95-1.85,1.25-.71.31-1.48.46-2.32.46s-1.56-.15-2.29-.46c-.73-.31-1.36-.73-1.91-1.25-.54-.53-.97-1.15-1.28-1.88-.31-.73-.46-1.49-.46-2.29V25.46c0-.8.16-1.55.49-2.26.33-.71.76-1.33,1.31-1.88s1.18-.97,1.91-1.28c.73-.31,1.51-.46,2.34-.46s1.6.15,2.29.46c.69.31,1.3.74,1.83,1.28s.93,1.17,1.23,1.88c.29.71.44,1.46.44,2.26v38.92Z"/>
      <path class="cls-2" d="m161.23,58.43c.84,0,1.62.16,2.34.49s1.34.77,1.85,1.33c.51.56.91,1.21,1.2,1.93.29.73.44,1.49.44,2.29,0,1.67-.54,3.05-1.63,4.14-1.09,1.09-2.49,1.63-4.2,1.63-2.47,0-4.79-.42-6.95-1.25-2.16-.83-4.06-2-5.7-3.49-1.64-1.49-2.93-3.29-3.87-5.4s-1.45-4.43-1.53-6.98V5.94c0-.83.15-1.62.46-2.34.31-.73.72-1.35,1.23-1.88.51-.53,1.11-.94,1.8-1.25.69-.31,1.44-.46,2.23-.46s1.62.16,2.34.46,1.37.73,1.94,1.25c.56.53,1.01,1.15,1.34,1.88.33.73.49,1.51.49,2.34v46.82c0,1.89.58,3.31,1.74,4.25,1.16.95,2.65,1.42,4.47,1.42Z"/>
      <path class="cls-2" d="m223.31,45.13c-.04,3.52-.74,6.86-2.12,10-1.38,3.14-3.24,5.88-5.59,8.2s-5.09,4.17-8.23,5.53c-3.14,1.36-6.5,2.04-10.06,2.04s-6.97-.68-10.11-2.04c-3.14-1.36-5.89-3.22-8.23-5.59s-4.2-5.12-5.56-8.29c-1.36-3.16-2.04-6.52-2.04-10.08s.68-6.98,2.04-10.14c1.36-3.16,3.22-5.91,5.56-8.26s5.09-4.2,8.23-5.56c3.14-1.36,6.51-2.04,10.11-2.04,2.62,0,5.11.37,7.5,1.12,2.38.75,4.61,1.79,6.68,3.13V6.16c0-.87.15-1.68.44-2.42.29-.75.7-1.4,1.23-1.96.53-.56,1.14-1,1.85-1.31.71-.31,1.5-.46,2.37-.46s1.62.16,2.34.46,1.35.75,1.88,1.31c.53.56.95,1.22,1.25,1.96s.46,1.55.46,2.42v38.97Zm-11.83-.22c0-1.96-.37-3.81-1.12-5.53-.74-1.73-1.76-3.22-3.05-4.5-1.29-1.27-2.79-2.28-4.5-3.02-1.71-.74-3.54-1.12-5.5-1.12s-3.8.37-5.5,1.12c-1.71.75-3.21,1.75-4.5,3.02-1.29,1.27-2.3,2.77-3.02,4.5-.73,1.73-1.09,3.57-1.09,5.53s.36,3.75,1.09,5.48c.73,1.73,1.72,3.23,3,4.52,1.27,1.29,2.77,2.31,4.5,3.05,1.72.75,3.57,1.12,5.53,1.12s3.8-.37,5.5-1.12c1.71-.74,3.21-1.76,4.5-3.05s2.31-2.8,3.05-4.52,1.12-3.55,1.12-5.48Z"/>
      <path class="cls-1" d="m245.71,64.48c0,1.63-.55,3.01-1.66,4.12s-2.48,1.66-4.12,1.66c-.8,0-1.56-.15-2.29-.46-.73-.31-1.37-.72-1.93-1.23-.56-.51-1.01-1.12-1.34-1.83s-.49-1.46-.49-2.26v-25.67c0-2.73.54-5.3,1.61-7.71,1.07-2.42,2.54-4.52,4.39-6.32,1.85-1.8,4.01-3.22,6.46-4.28,2.45-1.05,5.04-1.58,7.77-1.58s5.5.54,7.99,1.63c2.49,1.09,4.68,2.58,6.57,4.47,1.89-1.89,4.1-3.38,6.62-4.47,2.53-1.09,5.21-1.63,8.04-1.63s5.34.51,7.74,1.53,4.5,2.42,6.32,4.2c1.82,1.78,3.27,3.85,4.36,6.21,1.09,2.36,1.69,4.89,1.8,7.58,0,.07,0,.16.03.25.02.09.03.17.03.25v25.56c0,.8-.15,1.55-.46,2.26s-.73,1.32-1.25,1.83c-.53.51-1.14.92-1.83,1.23-.69.31-1.44.46-2.23.46s-1.57-.15-2.32-.46c-.75-.31-1.39-.72-1.94-1.23s-.98-1.12-1.31-1.83-.49-1.46-.49-2.26v-25.73c-.04-1.16-.29-2.23-.76-3.22-.47-.98-1.1-1.83-1.88-2.53-.78-.71-1.67-1.26-2.67-1.66-1-.4-2.08-.6-3.24-.6s-2.27.22-3.33.65c-1.05.44-1.97,1.03-2.75,1.77-.78.75-1.4,1.62-1.85,2.62-.45,1-.68,2.08-.68,3.24v25.46c0,1.63-.55,3.01-1.66,4.12-1.11,1.11-2.48,1.66-4.12,1.66-.8,0-1.56-.15-2.29-.46s-1.37-.72-1.93-1.23-1.01-1.12-1.33-1.83c-.33-.71-.49-1.46-.49-2.26v-25.67c-.04-1.16-.28-2.24-.74-3.24-.46-1-1.06-1.85-1.83-2.56-.76-.71-1.65-1.26-2.67-1.66-1.02-.4-2.11-.6-3.27-.6s-2.26.21-3.3.63c-1.04.42-1.95,1-2.73,1.75-.78.75-1.4,1.61-1.85,2.59-.45.98-.68,2.04-.68,3.16v25.62Z"/>
      <path class="cls-1" d="m310.63,44.91c0-3.6.69-6.97,2.07-10.11,1.38-3.14,3.25-5.9,5.61-8.26,2.36-2.36,5.12-4.22,8.26-5.59s6.5-2.04,10.06-2.04,6.98.68,10.14,2.04c3.16,1.36,5.91,3.23,8.26,5.59,2.34,2.36,4.19,5.12,5.53,8.26,1.34,3.14,2.02,6.51,2.02,10.11v19.3c0,.84-.16,1.62-.46,2.34-.31.73-.74,1.36-1.28,1.91s-1.19.98-1.94,1.31-1.54.49-2.37.49c-1.42,0-2.62-.42-3.6-1.25-.98-.83-1.64-1.89-1.96-3.16-2.07,1.56-4.32,2.8-6.73,3.71-2.42.91-4.95,1.36-7.6,1.36-3.56,0-6.91-.68-10.06-2.04-3.14-1.36-5.9-3.22-8.26-5.59-2.36-2.36-4.23-5.12-5.61-8.29-1.38-3.16-2.07-6.52-2.07-10.08Zm11.83,0c0,1.93.37,3.75,1.12,5.48.75,1.73,1.76,3.23,3.05,4.52,1.29,1.29,2.79,2.31,4.5,3.05,1.71.75,3.54,1.12,5.5,1.12s3.81-.37,5.53-1.12c1.72-.74,3.22-1.76,4.5-3.05,1.27-1.29,2.27-2.8,3-4.52.73-1.73,1.09-3.55,1.09-5.48s-.36-3.81-1.09-5.53c-.73-1.73-1.73-3.22-3-4.5-1.27-1.27-2.77-2.28-4.5-3.02-1.73-.74-3.57-1.12-5.53-1.12s-3.75.37-5.48,1.12c-1.73.75-3.24,1.75-4.52,3.02-1.29,1.27-2.31,2.77-3.05,4.5-.74,1.73-1.12,3.57-1.12,5.53Z"/>
      <path class="cls-1" d="m384.92,19.57h18.97c.83,0,1.62.15,2.34.46.73.31,1.36.74,1.91,1.28s.97,1.18,1.28,1.91c.31.73.46,1.51.46,2.34s-.15,1.55-.46,2.26c-.31.71-.74,1.33-1.28,1.85-.54.53-1.18.95-1.91,1.25-.73.31-1.51.46-2.34.46h-18.97v13.79c0,1.93.37,3.73,1.12,5.42.74,1.69,1.75,3.16,3.03,4.42,1.27,1.25,2.77,2.24,4.5,2.97,1.73.73,3.57,1.09,5.53,1.09,1.74,0,3.36-.25,4.85-.74,1.49-.49,2.87-1.3,4.14-2.43.62-.58,1.31-1.06,2.07-1.44.76-.38,1.56-.57,2.4-.57,1.34,0,2.56.49,3.65,1.47.65.58,1.12,1.27,1.39,2.07.27.8.38,1.63.33,2.48-.05.85-.26,1.68-.63,2.48-.36.8-.87,1.51-1.53,2.12-2.18,2.11-4.69,3.7-7.52,4.77s-5.89,1.61-9.16,1.61c-3.6,0-6.97-.67-10.11-2.02-3.14-1.34-5.9-3.18-8.26-5.51-2.36-2.32-4.22-5.06-5.59-8.2-1.36-3.14-2.04-6.51-2.04-10.11V10.08c0-.84.16-1.62.49-2.34.33-.73.76-1.36,1.31-1.91.54-.54,1.18-.97,1.91-1.28.73-.31,1.49-.46,2.29-.46s1.55.16,2.26.46c.71.31,1.33.74,1.85,1.28.53.55.94,1.18,1.25,1.91.31.73.46,1.51.46,2.34v9.48Z"/>
      <path class="cls-1" d="m434.79,50.2c.47,1.34,1.14,2.57,1.99,3.68s1.84,2.05,2.97,2.83c1.13.78,2.36,1.38,3.71,1.8,1.34.42,2.76.63,4.25.63,3.74,0,6.69-.98,8.83-2.94.73-.51,1.43-.88,2.13-1.12.69-.24,1.34-.35,1.96-.35,1.02,0,1.92.26,2.73.79.8.53,1.45,1.21,1.96,2.04.36.58.63,1.21.79,1.88.16.67.2,1.35.11,2.04-.09.69-.31,1.37-.65,2.04-.35.67-.86,1.28-1.55,1.83-.8.73-1.71,1.43-2.73,2.1s-2.19,1.26-3.52,1.77-2.82.92-4.47,1.23c-1.65.31-3.52.46-5.59.46-3.6,0-6.98-.68-10.14-2.04-3.16-1.36-5.92-3.22-8.29-5.59-2.36-2.36-4.23-5.11-5.61-8.26-1.38-3.14-2.07-6.51-2.07-10.11s.69-6.98,2.07-10.14c1.38-3.16,3.25-5.91,5.61-8.26,2.36-2.34,5.12-4.2,8.29-5.56,3.16-1.36,6.54-2.04,10.14-2.04s6.91.67,10.06,2.02c3.14,1.34,5.91,3.17,8.29,5.48,2.38,2.31,4.27,5.02,5.67,8.15,1.4,3.12,2.12,6.47,2.15,10.03,0,1.67-.54,3.03-1.61,4.06-1.07,1.04-2.48,1.55-4.22,1.55h-33.25Zm26.93-9.81c-.4-1.49-1.03-2.83-1.88-4.03-.85-1.2-1.88-2.22-3.08-3.05s-2.54-1.47-4.03-1.91c-1.49-.44-3.07-.65-4.74-.65s-3.24.23-4.71.68c-1.47.46-2.8,1.11-3.98,1.96-1.18.85-2.19,1.87-3.03,3.05-.84,1.18-1.45,2.5-1.85,3.95h27.31Z"/>
      <path class="cls-2" d="m109.43,61.41c-.72,1.18-1.57,2.32-2.54,3.41-.56.63-1.15,1.23-1.77,1.81-1.72,1.61-3.67,3-5.86,4.16-1.97,1.04-2.91,2.53-2.91,4.52v4.79c-1.77,1.18-3.74,2.09-5.86,2.71-1.95.56-4.02.87-6.16.87s-4.39-.34-6.42-.96c-2.22-.67-4.28-1.68-6.11-2.97,0-1.45,0-2.9.01-4.35,0-2-.91-3.5-2.9-4.58-1.96-1.07-3.74-2.3-5.29-3.67-1.94-1.69-3.56-3.59-4.84-5.63-4.53-7.2-4.81-16.11.03-23.86,2.65-4.26,6.49-7.52,11.36-9.89,1.01-.49,1.67-.15,1.67.86,0,6.44,0,12.87-.02,19.31,0,1.01-.01,2.03-.01,3.04-.01,1.2.57,1.95,1.84,2.41,7.03,2.5,14.04,2.49,21.04-.08,1.14-.41,1.65-1.12,1.65-2.18v-3.53c-.01-6.26-.01-12.52-.01-18.77v-.27c.02-.92.7-1.27,1.63-.82,2.38,1.15,4.54,2.56,6.09,3.9,9.45,8.21,11.32,20.21,5.38,29.77Z"/>
    </g>
  </g>
</svg>